<svg width="24" height="25" viewBox="0 0 24 25" fill="none" xmlns="http://www.w3.org/2000/svg">
<path d="M10.6575 4.25C9.915 4.25 9.1965 4.4675 8.57775 4.88L7.08375 5.876L7.91625 7.124L9.41025 6.128C9.77941 5.8813 10.2135 5.74975 10.6575 5.75H13.9462C14.3167 5.75068 14.6781 5.86535 14.9812 6.07844C15.2843 6.29152 15.5144 6.5927 15.6405 6.9411C15.7665 7.28951 15.7823 7.66825 15.6857 8.02594C15.5891 8.38362 15.3848 8.70292 15.1005 8.9405L14.43 9.5H6V11H12.63L9.9285 13.25H6V14.75H8.13L7.9395 14.9075C7.56673 15.2175 7.26688 15.6058 7.06128 16.0449C6.85568 16.4839 6.7494 16.9629 6.75 17.4478C6.75119 18.3233 7.09959 19.1627 7.71879 19.7817C8.33798 20.4008 9.17742 20.749 10.053 20.75H13.3417C14.0842 20.75 14.8042 20.5325 15.4215 20.12L16.9163 19.124L16.0837 17.876L14.5897 18.872C14.2206 19.1187 13.7865 19.2503 13.3425 19.25H10.0538C9.68325 19.2493 9.32193 19.1346 9.01884 18.9216C8.71575 18.7085 8.48555 18.4073 8.35951 18.0589C8.23347 17.7105 8.21767 17.3317 8.31428 16.9741C8.41088 16.6164 8.6152 16.2971 8.8995 16.0595L10.4708 14.75H18V13.25H12.2708L14.9708 11H18V9.5H16.6125C17.0266 8.93531 17.25 8.25328 17.25 7.553C17.249 6.67729 16.9007 5.83774 16.2815 5.21852C15.6623 4.5993 14.8227 4.25099 13.947 4.25H10.6575Z" fill="#2F0A2B"/>
</svg>
