<svg width="21" height="21" viewBox="0 0 21 21" fill="none" xmlns="http://www.w3.org/2000/svg">
<path d="M6.9462 4.16369L12.71 10.0199C12.8364 10.1477 12.9073 10.3202 12.9073 10.4999C12.9073 10.6797 12.8364 10.8522 12.71 10.9799L6.94745 16.8362C6.82111 16.9648 6.75031 17.1378 6.75031 17.3181C6.75031 17.4983 6.82111 17.6714 6.94745 17.7999C7.00918 17.8632 7.08294 17.9136 7.16442 17.9479C7.24589 17.9823 7.33341 18 7.42183 18C7.51025 18 7.59777 17.9823 7.67924 17.9479C7.76071 17.9136 7.83448 17.8632 7.8962 17.7999L13.6587 11.9449C14.0374 11.5593 14.2495 11.0404 14.2495 10.4999C14.2495 9.95947 14.0374 9.44059 13.6587 9.05494L7.8962 3.19994C7.83446 3.13644 7.76062 3.08596 7.67903 3.0515C7.59744 3.01703 7.50977 2.99927 7.4212 2.99927C7.33263 2.99927 7.24497 3.01703 7.16338 3.0515C7.08179 3.08596 7.00794 3.13644 6.9462 3.19994C6.81986 3.32851 6.74906 3.50156 6.74906 3.68182C6.74906 3.86208 6.81986 4.03512 6.9462 4.16369Z" fill="#2F0A2B"/>
</svg>
