<svg width="21" height="21" viewBox="0 0 21 21" fill="none" xmlns="http://www.w3.org/2000/svg">
<path d="M14.0538 16.8363L8.29004 10.9801C8.16363 10.8523 8.09273 10.6798 8.09273 10.5001C8.09273 10.3203 8.16363 10.1478 8.29004 10.0201L14.0525 4.16381C14.1789 4.03524 14.2497 3.86219 14.2497 3.68194C14.2497 3.50168 14.1789 3.32863 14.0525 3.20006C13.9908 3.13675 13.9171 3.08643 13.8356 3.05208C13.7541 3.01773 13.6666 3.00003 13.5782 3.00003C13.4898 3.00003 13.4022 3.01773 13.3208 3.05208C13.2393 3.08643 13.1655 3.13675 13.1038 3.20006L7.3413 9.05506C6.96264 9.44071 6.75049 9.95959 6.75049 10.5001C6.75049 11.0405 6.96264 11.5594 7.3413 11.9451L13.1038 17.8001C13.1655 17.8636 13.2394 17.914 13.321 17.9485C13.4026 17.983 13.4902 18.0007 13.5788 18.0007C13.6674 18.0007 13.755 17.983 13.8366 17.9485C13.9182 17.914 13.9921 17.8636 14.0538 17.8001C14.1801 17.6715 14.2509 17.4984 14.2509 17.3182C14.2509 17.1379 14.1801 16.9649 14.0538 16.8363Z" fill="#2F0A2B"/>
</svg>
