<svg width="32" height="33" viewBox="0 0 32 33" fill="none" xmlns="http://www.w3.org/2000/svg">
<path d="M5.3335 5.83334H7.5015C8.2575 5.83334 8.63483 5.83334 8.93616 5.99868C9.06039 6.06707 9.17292 6.15483 9.2695 6.25868C9.50283 6.51068 9.59483 6.87734 9.7775 7.61068L10.0202 8.58001C10.1548 9.11868 10.2228 9.38801 10.3268 9.61468C10.5046 10.0015 10.7724 10.3401 11.1078 10.6022C11.4432 10.8643 11.8365 11.0423 12.2548 11.1213C12.5002 11.1667 12.7775 11.1667 13.3335 11.1667" stroke="#FF8F0F" stroke-width="2.66667" stroke-linecap="round"/>
<path d="M24.0003 23.1667H10.0669C9.87361 23.1667 9.77627 23.1667 9.70161 23.1587C9.51648 23.138 9.33773 23.0788 9.17689 22.9849C9.01604 22.8909 8.87667 22.7643 8.76776 22.6131C8.65885 22.462 8.58281 22.2898 8.54454 22.1075C8.50628 21.9251 8.50664 21.7368 8.54561 21.5547C8.57639 21.4367 8.61242 21.3201 8.65361 21.2054C8.72294 21 8.75627 20.8974 8.79494 20.8054C8.98474 20.3507 9.29676 19.9576 9.69639 19.6695C10.096 19.3815 10.5676 19.2097 11.0589 19.1734C11.1576 19.1667 11.2669 19.1667 11.4816 19.1667H18.6669" stroke="#FF8F0F" stroke-width="2.66667" stroke-linecap="round" stroke-linejoin="round"/>
<path d="M19.371 19.1667H14.6323C13.011 19.1667 12.2003 19.1667 11.575 18.8C11.3113 18.6449 11.0763 18.4455 10.8803 18.2107C10.4137 17.6534 10.2803 16.8534 10.015 15.2547C9.74432 13.6347 9.60966 12.824 9.93099 12.224C10.0647 11.9736 10.2501 11.7545 10.475 11.5814C11.0137 11.1667 11.835 11.1667 13.4777 11.1667H22.3523C24.2857 11.1667 25.2523 11.1667 25.6443 11.7987C26.035 12.432 25.6017 13.296 24.7377 15.0254L24.1417 16.2187C23.4243 17.6534 23.0657 18.3707 22.4217 18.768C21.7763 19.1667 20.975 19.1667 19.371 19.1667Z" stroke="#FF8F0F" stroke-width="2.66667" stroke-linecap="round"/>
<path d="M22.6668 28.5C23.4032 28.5 24.0002 27.9031 24.0002 27.1667C24.0002 26.4303 23.4032 25.8333 22.6668 25.8333C21.9304 25.8333 21.3335 26.4303 21.3335 27.1667C21.3335 27.9031 21.9304 28.5 22.6668 28.5Z" fill="#FF8F0F"/>
<path d="M12.0003 28.5C12.7367 28.5 13.3337 27.9031 13.3337 27.1667C13.3337 26.4303 12.7367 25.8333 12.0003 25.8333C11.2639 25.8333 10.667 26.4303 10.667 27.1667C10.667 27.9031 11.2639 28.5 12.0003 28.5Z" fill="#FF8F0F"/>
</svg>
